<svg xmlns="http://www.w3.org/2000/svg" width="360" height="300" viewBox="0 0 360 300">
  <g id="Group_4099" data-name="Group 4099" transform="translate(-8 -324)">
    <g id="Path_2983" data-name="Path 2983" transform="translate(18 321)" fill="#fff">
      <path d="M 349.5 302.5 L -9.5 302.5 L -9.5 3.500015258789063 L 349.5 3.500015258789063 L 349.5 302.5 Z" stroke="none"/>
      <path d="M -9 4.000030517578125 L -9 302 L 349 302 L 349 4.000030517578125 L -9 4.000030517578125 M -10 3.000030517578125 L 350 3.000030517578125 L 350 303 L -10 303 L -10 3.000030517578125 Z" stroke="none" fill="#d6d6db"/>
    </g>
    <path id="Path_2470" data-name="Path 2470" d="M67,0H-15V27H67Z" transform="translate(300 364)" fill="#ecf0f1"/>
    <path id="Path_2470-2" data-name="Path 2470" d="M67,0H-15V27H67Z" transform="translate(300 393)" fill="#ecf0f1"/>
    <path id="Path_2470-3" data-name="Path 2470" d="M67,0H-15V27H67Z" transform="translate(300 422)" fill="#ecf0f1"/>
    <path id="Path_2470-4" data-name="Path 2470" d="M67,0H-15V27H67Z" transform="translate(300 451)" fill="#ecf0f1"/>
    <path id="Path_2470-5" data-name="Path 2470" d="M67,0H-15V27H67Z" transform="translate(300 480)" fill="#ecf0f1"/>
    <path id="Path_2470-6" data-name="Path 2470" d="M67,0H-15V27H67Z" transform="translate(300 509)" fill="#ecf0f1"/>
    <path id="Path_2470-7" data-name="Path 2470" d="M67,0H-15V27H67Z" transform="translate(300 538)" fill="#ecf0f1"/>
    <path id="Path_2470-8" data-name="Path 2470" d="M67,0H-15V27H67Z" transform="translate(300 567)" fill="#ecf0f1"/>
    <path id="Path_2470-9" data-name="Path 2470" d="M67,0H-15V27H67Z" transform="translate(300 596)" fill="#ecf0f1"/>
    <text id="Weekdays" transform="translate(362 441)" fill="#326277" font-size="13" font-family="SegoeUI, Segoe UI"><tspan x="-57.77" y="0">Weekdays</tspan></text>
    <text id="Weekend" transform="translate(363 470)" fill="#379f00" font-size="13" font-family="SegoeUI, Segoe UI"><tspan x="-53.504" y="0">Weekend</tspan></text>
    <text id="Weekdays-2" data-name="Weekdays" transform="translate(362 499)" fill="#326277" font-size="13" font-family="SegoeUI, Segoe UI"><tspan x="-57.77" y="0">Weekdays</tspan></text>
    <text id="Weekend-2" data-name="Weekend" transform="translate(363 528)" fill="#379f00" font-size="13" font-family="SegoeUI, Segoe UI"><tspan x="-53.504" y="0">Weekend</tspan></text>
    <text id="Weekdays-3" data-name="Weekdays" transform="translate(362 383)" fill="#326277" font-size="13" font-family="SegoeUI, Segoe UI"><tspan x="-57.77" y="0">Weekdays</tspan></text>
    <text id="Weekend-3" data-name="Weekend" transform="translate(363 412)" fill="#379f00" font-size="13" font-family="SegoeUI, Segoe UI"><tspan x="-53.504" y="0">Weekend</tspan></text>
    <text id="Weekdays-4" data-name="Weekdays" transform="translate(362 557)" fill="#326277" font-size="13" font-family="SegoeUI, Segoe UI"><tspan x="-57.77" y="0">Weekdays</tspan></text>
    <text id="Weekdays-5" data-name="Weekdays" transform="translate(362 616)" fill="#326277" font-size="13" font-family="SegoeUI, Segoe UI"><tspan x="-57.77" y="0">Weekdays</tspan></text>
    <g id="Rectangle_300" data-name="Rectangle 300" transform="translate(8 324)" fill="#356072" stroke="#d6d6db" stroke-width="1">
      <rect width="360" height="40" stroke="none"/>
      <rect x="0.5" y="0.5" width="359" height="39" fill="none"/>
    </g>
    <text id="_03_2020" data-name="03 / 2020" transform="translate(244 352)" fill="#fff" font-size="22" font-family="Arial-BoldMT, Arial" font-weight="700"><tspan x="-91.749" y="0">03 / 2020</tspan></text>
    <path id="Chevron" d="M.292,11.213a1.016,1.016,0,0,1,0-1.426L9.537.428a1.431,1.431,0,0,1,2.041,0,1.475,1.475,0,0,1,0,2.065L3.669,10.5l7.909,8.006a1.476,1.476,0,0,1,0,2.066,1.431,1.431,0,0,1-2.041,0Z" transform="translate(23 334)" fill="#fff"/>
    <path id="Chevron-2" data-name="Chevron" d="M11.707,11.213a1.016,1.016,0,0,0,0-1.426L2.462.428a1.431,1.431,0,0,0-2.041,0,1.475,1.475,0,0,0,0,2.065L8.33,10.5.422,18.506a1.476,1.476,0,0,0,0,2.066,1.431,1.431,0,0,0,2.041,0Z" transform="translate(341 334)" fill="#fff"/>
    <text id="Weekend-4" data-name="Weekend" transform="translate(363 586)" fill="#379f00" font-size="13" font-family="SegoeUI, Segoe UI"><tspan x="-53.504" y="0">Weekend</tspan></text>
    <path id="Path_2470-10" data-name="Path 2470" d="M52,0H-15V27H52Z" transform="translate(24 364)" fill="#ecf0f1"/>
    <path id="Path_2470-11" data-name="Path 2470" d="M52,0H-15V27H52Z" transform="translate(93 364)" fill="#ecf0f1"/>
    <path id="Path_2470-12" data-name="Path 2470" d="M52,0H-15V27H52Z" transform="translate(162 364)" fill="#ccc"/>
    <path id="Path_2470-13" data-name="Path 2470" d="M52,0H-15V27H52Z" transform="translate(231 364)" fill="#ecf0f1"/>
    <text id="_1" data-name="1" transform="translate(39 383)" fill="#c2c2c2" font-size="14" font-family="Arial-BoldMT, Arial" font-weight="700" letter-spacing="0.08em"><tspan x="0" y="0">1</tspan></text>
    <text id="_2" data-name="2" transform="translate(108 383)" fill="#356072" font-size="14" font-family="Arial-BoldMT, Arial" font-weight="700" letter-spacing="0.08em"><tspan x="0" y="0">2</tspan></text>
    <text id="_3" data-name="3" transform="translate(177 383)" fill="#356072" font-size="14" font-family="Arial-BoldMT, Arial" font-weight="700" letter-spacing="0.08em"><tspan x="0" y="0">3</tspan></text>
    <text id="_4" data-name="4" transform="translate(246 383)" fill="#356072" font-size="14" font-family="Arial-BoldMT, Arial" font-weight="700" letter-spacing="0.08em"><tspan x="0" y="0">4</tspan></text>
    <path id="Path_2470-14" data-name="Path 2470" d="M52,0H-15V27H52Z" transform="translate(24 393)" fill="#ecf0f1"/>
    <path id="Path_2470-15" data-name="Path 2470" d="M52,0H-15V27H52Z" transform="translate(93 393)" fill="#ecf0f1"/>
    <path id="Path_2470-16" data-name="Path 2470" d="M52,0H-15V27H52Z" transform="translate(162 393)" fill="#ecf0f1"/>
    <text id="_5" data-name="5" transform="translate(39 412)" fill="#356072" font-size="14" font-family="Arial-BoldMT, Arial" font-weight="700" letter-spacing="0.08em"><tspan x="0" y="0">5</tspan></text>
    <text id="_6" data-name="6" transform="translate(108 412)" fill="#356072" font-size="14" font-family="Arial-BoldMT, Arial" font-weight="700" letter-spacing="0.08em"><tspan x="0" y="0">6</tspan></text>
    <text id="_7" data-name="7" transform="translate(177 412)" fill="#356072" font-size="14" font-family="Arial-BoldMT, Arial" font-weight="700" letter-spacing="0.08em"><tspan x="0" y="0">7</tspan></text>
    <path id="Path_2470-17" data-name="Path 2470" d="M52,0H-15V27H52Z" transform="translate(24 422)" fill="#dc3131"/>
    <path id="Path_2470-18" data-name="Path 2470" d="M52,0H-15V27H52Z" transform="translate(93 422)" fill="#dc3131"/>
    <path id="Path_2470-19" data-name="Path 2470" d="M52,0H-15V27H52Z" transform="translate(162 422)" fill="#dc3131"/>
    <path id="Path_2470-20" data-name="Path 2470" d="M52,0H-15V27H52Z" transform="translate(231 422)" fill="#dc3131"/>
    <text id="_8" data-name="8" transform="translate(39 441)" fill="#fff" font-size="14" font-family="Arial-BoldMT, Arial" font-weight="700" letter-spacing="0.08em"><tspan x="0" y="0">8</tspan></text>
    <text id="_9" data-name="9" transform="translate(108 441)" fill="#fff" font-size="14" font-family="Arial-BoldMT, Arial" font-weight="700" letter-spacing="0.08em"><tspan x="0" y="0">9</tspan></text>
    <text id="_10" data-name="10" transform="translate(173 441)" fill="#fff" font-size="14" font-family="Arial-BoldMT, Arial" font-weight="700" letter-spacing="0.08em"><tspan x="0" y="0">10</tspan></text>
    <text id="_11" data-name="11" transform="translate(250 441)" fill="#fff" font-size="14" font-family="Arial-BoldMT, Arial" font-weight="700" letter-spacing="0.08em"><tspan x="-7.96" y="0">11</tspan></text>
    <path id="Path_2470-21" data-name="Path 2470" d="M52,0H-15V27H52Z" transform="translate(24 451)" fill="#ecf0f1"/>
    <path id="Path_2470-22" data-name="Path 2470" d="M52,0H-15V27H52Z" transform="translate(93 451)" fill="#ecf0f1"/>
    <path id="Path_2470-23" data-name="Path 2470" d="M52,0H-15V27H52Z" transform="translate(162 451)" fill="#ecf0f1"/>
    <text id="_12" data-name="12" transform="translate(35 470)" fill="#356072" font-size="14" font-family="Arial-BoldMT, Arial" font-weight="700" letter-spacing="0.08em"><tspan x="0" y="0">12</tspan></text>
    <text id="_13" data-name="13" transform="translate(104 470)" fill="#356072" font-size="14" font-family="Arial-BoldMT, Arial" font-weight="700" letter-spacing="0.08em"><tspan x="0" y="0">13</tspan></text>
    <text id="_14" data-name="14" transform="translate(173 470)" fill="#356072" font-size="14" font-family="Arial-BoldMT, Arial" font-weight="700" letter-spacing="0.08em"><tspan x="0" y="0">14</tspan></text>
    <path id="Path_2470-24" data-name="Path 2470" d="M52,0H-15V27H52Z" transform="translate(24 480)" fill="#ecf0f1"/>
    <path id="Path_2470-25" data-name="Path 2470" d="M52,0H-15V27H52Z" transform="translate(93 480)" fill="#ecf0f1"/>
    <path id="Path_2470-26" data-name="Path 2470" d="M52,0H-15V27H52Z" transform="translate(162 480)" fill="#ecf0f1"/>
    <path id="Path_2470-27" data-name="Path 2470" d="M52,0H-15V27H52Z" transform="translate(231 480)" fill="#ecf0f1"/>
    <text id="_15" data-name="15" transform="translate(35 499)" fill="#356072" font-size="14" font-family="Arial-BoldMT, Arial" font-weight="700" letter-spacing="0.08em"><tspan x="0" y="0">15</tspan></text>
    <text id="_16" data-name="16" transform="translate(104 499)" fill="#356072" font-size="14" font-family="Arial-BoldMT, Arial" font-weight="700" letter-spacing="0.08em"><tspan x="0" y="0">16</tspan></text>
    <text id="_17" data-name="17" transform="translate(173 499)" fill="#356072" font-size="14" font-family="Arial-BoldMT, Arial" font-weight="700" letter-spacing="0.08em"><tspan x="0" y="0">17</tspan></text>
    <text id="_18" data-name="18" transform="translate(250 499)" fill="#356072" font-size="14" font-family="Arial-BoldMT, Arial" font-weight="700" letter-spacing="0.08em"><tspan x="-8.346" y="0">18</tspan></text>
    <path id="Path_2470-28" data-name="Path 2470" d="M52,0H-15V27H52Z" transform="translate(24 509)" fill="#dc3131"/>
    <path id="Path_2470-29" data-name="Path 2470" d="M52,0H-15V27H52Z" transform="translate(93 509)" fill="#dc3131"/>
    <path id="Path_2470-30" data-name="Path 2470" d="M52,0H-15V27H52Z" transform="translate(162 509)" fill="#dc3131"/>
    <text id="_19" data-name="19" transform="translate(35 528)" fill="#fff" font-size="14" font-family="Arial-BoldMT, Arial" font-weight="700" letter-spacing="0.08em"><tspan x="0" y="0">19</tspan></text>
    <text id="_20" data-name="20" transform="translate(104 528)" fill="#fff" font-size="14" font-family="Arial-BoldMT, Arial" font-weight="700" letter-spacing="0.08em"><tspan x="0" y="0">20</tspan></text>
    <text id="_21" data-name="21" transform="translate(173 528)" fill="#fff" font-size="14" font-family="Arial-BoldMT, Arial" font-weight="700" letter-spacing="0.08em"><tspan x="0" y="0">21</tspan></text>
    <path id="Path_2470-31" data-name="Path 2470" d="M52,0H-15V27H52Z" transform="translate(24 538)" fill="#ecf0f1"/>
    <path id="Path_2470-32" data-name="Path 2470" d="M52,0H-15V27H52Z" transform="translate(93 538)" fill="#ecf0f1"/>
    <path id="Path_2470-33" data-name="Path 2470" d="M52,0H-15V27H52Z" transform="translate(162 538)" fill="#ecf0f1"/>
    <path id="Path_2470-34" data-name="Path 2470" d="M52,0H-15V27H52Z" transform="translate(231 538)" fill="#ecf0f1"/>
    <text id="_22" data-name="22" transform="translate(35 557)" fill="#356072" font-size="14" font-family="Arial-BoldMT, Arial" font-weight="700" letter-spacing="0.08em"><tspan x="0" y="0">22</tspan></text>
    <text id="_23" data-name="23" transform="translate(104 557)" fill="#356072" font-size="14" font-family="Arial-BoldMT, Arial" font-weight="700" letter-spacing="0.08em"><tspan x="0" y="0">23</tspan></text>
    <text id="_24" data-name="24" transform="translate(173 557)" fill="#356072" font-size="14" font-family="Arial-BoldMT, Arial" font-weight="700" letter-spacing="0.08em"><tspan x="0" y="0">24</tspan></text>
    <text id="_25" data-name="25" transform="translate(250 557)" fill="#356072" font-size="14" font-family="Arial-BoldMT, Arial" font-weight="700" letter-spacing="0.08em"><tspan x="-8.346" y="0">25</tspan></text>
    <path id="Path_2470-35" data-name="Path 2470" d="M52,0H-15V27H52Z" transform="translate(24 567)" fill="#dc3131"/>
    <path id="Path_2470-36" data-name="Path 2470" d="M52,0H-15V27H52Z" transform="translate(93 567)" fill="#dc3131"/>
    <path id="Path_2470-37" data-name="Path 2470" d="M52,0H-15V27H52Z" transform="translate(162 567)" fill="#dc3131"/>
    <text id="_26" data-name="26" transform="translate(35 586)" fill="#fff" font-size="14" font-family="Arial-BoldMT, Arial" font-weight="700" letter-spacing="0.08em"><tspan x="0" y="0">26</tspan></text>
    <text id="_27" data-name="27" transform="translate(104 586)" fill="#fff" font-size="14" font-family="Arial-BoldMT, Arial" font-weight="700" letter-spacing="0.08em"><tspan x="0" y="0">27</tspan></text>
    <text id="_28" data-name="28" transform="translate(173 586)" fill="#fff" font-size="14" font-family="Arial-BoldMT, Arial" font-weight="700" letter-spacing="0.08em"><tspan x="0" y="0">28</tspan></text>
    <path id="Path_2470-38" data-name="Path 2470" d="M52,0H-15V27H52Z" transform="translate(24 596)" fill="#dc3131"/>
    <path id="Path_2470-39" data-name="Path 2470" d="M52,0H-15V27H52Z" transform="translate(93 596)" fill="#dc3131"/>
    <path id="Path_2470-40" data-name="Path 2470" d="M52,0H-15V27H52Z" transform="translate(162 596)" fill="#ecf0f1"/>
    <path id="Path_2470-41" data-name="Path 2470" d="M52,0H-15V27H52Z" transform="translate(231 596)" fill="#ecf0f1"/>
    <text id="_29" data-name="29" transform="translate(35 615)" fill="#fff" font-size="14" font-family="Arial-BoldMT, Arial" font-weight="700" letter-spacing="0.08em"><tspan x="0" y="0">29</tspan></text>
    <text id="_30" data-name="30" transform="translate(104 615)" fill="#fff" font-size="14" font-family="Arial-BoldMT, Arial" font-weight="700" letter-spacing="0.08em"><tspan x="0" y="0">30</tspan></text>
    <text id="_1-2" data-name="1" transform="translate(177 615)" fill="#c2c2c2" font-size="14" font-family="Arial-BoldMT, Arial" font-weight="700" letter-spacing="0.08em"><tspan x="0" y="0">1</tspan></text>
    <text id="_2-2" data-name="2" transform="translate(250 615)" fill="#c2c2c2" font-size="14" font-family="Arial-BoldMT, Arial" font-weight="700" letter-spacing="0.08em"><tspan x="-3.893" y="0">2</tspan></text>
  </g>
</svg>
