<svg xmlns="http://www.w3.org/2000/svg" width="27.063" height="25.98" viewBox="0 0 27.063 25.98">
  <g id="Group_4025" data-name="Group 4025" transform="translate(-75.437 -742.46)">
    <path id="Path" d="M18.958,11.917h-6.5a.541.541,0,0,1-.542-.542V4.333H7.583v7.042a.541.541,0,0,1-.542.542H.542A.541.541,0,0,1,0,11.375V.542a.542.542,0,0,1,1.083,0V10.833H6.5V3.792a.541.541,0,0,1,.542-.542h5.417A.541.541,0,0,1,13,3.792v7.042h5.417V1.083a.542.542,0,0,1,1.083,0V11.375A.541.541,0,0,1,18.958,11.917Z" transform="translate(79.25 756.023)" fill="#d98b03" stroke="#d98b03" stroke-width="1"/>
    <path id="Path-2" data-name="Path" d="M25.458,13.542a.54.54,0,0,1-.383-.159L13,1.308.925,13.383a.542.542,0,0,1-.766-.766L12.617.159a.541.541,0,0,1,.766,0L25.841,12.617a.542.542,0,0,1-.383.925Z" transform="translate(76 743.023)" fill="#d98b03" stroke="#d98b03" stroke-width="1"/>
    <path id="Path-3" data-name="Path" d="M4.333,4.875a.541.541,0,0,1-.542-.542V1.083H.542A.542.542,0,0,1,.542,0H4.333a.541.541,0,0,1,.542.542V4.333A.541.541,0,0,1,4.333,4.875Z" transform="translate(92.791 744.107)" fill="#d98b03" stroke="#d98b03" stroke-width="1"/>
  </g>
</svg>
