<svg id="Group_1012" data-name="Group 1012" xmlns="http://www.w3.org/2000/svg" width="29" height="29" viewBox="0 0 29 29">
  <g id="Path_1662" data-name="Path 1662" transform="translate(-160)" fill="#fff">
    <path d="M 184.1666564941406 28.5 L 164.8333282470703 28.5 C 162.4439086914063 28.5 160.4999847412109 26.48130989074707 160.4999847412109 24 L 160.4999847412109 5 C 160.4999847412109 2.51869010925293 162.4439086914063 0.5 164.8333282470703 0.5 L 184.1666564941406 0.5 C 186.5560607910156 0.5 188.4999847412109 2.51869010925293 188.4999847412109 5 L 188.4999847412109 24 C 188.4999847412109 26.48130989074707 186.5560607910156 28.5 184.1666564941406 28.5 Z" stroke="none"/>
    <path d="M 164.8333282470703 1 C 162.7196197509766 1 160.9999847412109 2.794389724731445 160.9999847412109 5 L 160.9999847412109 24 C 160.9999847412109 26.20561027526855 162.7196197509766 28 164.8333282470703 28 L 184.1666564941406 28 C 186.2803649902344 28 187.9999847412109 26.20561027526855 187.9999847412109 24 L 187.9999847412109 5 C 187.9999847412109 2.794389724731445 186.2803649902344 1 184.1666564941406 1 L 164.8333282470703 1 M 164.8333282470703 0 L 184.1666564941406 0 C 186.8360443115234 0 188.9999847412109 2.238580703735352 188.9999847412109 5 L 188.9999847412109 24 C 188.9999847412109 26.76141929626465 186.8360443115234 29 184.1666564941406 29 L 164.8333282470703 29 C 162.1639404296875 29 159.9999847412109 26.76141929626465 159.9999847412109 24 L 159.9999847412109 5 C 159.9999847412109 2.238580703735352 162.1639404296875 0 164.8333282470703 0 Z" stroke="none" fill="#d1d1d6"/>
  </g>
  <path id="Icon_awesome-paper-plane" data-name="Icon awesome-paper-plane" d="M16.737.111.44,9.51a.844.844,0,0,0,.077,1.518L4.255,12.6l10.1-8.9a.211.211,0,0,1,.3.292L6.189,14.3v2.83a.844.844,0,0,0,1.494.555l2.233-2.717L14.3,16.807a.846.846,0,0,0,1.16-.64L17.988.983A.844.844,0,0,0,16.737.111Z" transform="translate(4.799 6.002)" fill="#379bf2"/>
</svg>
